<svg width="155" height="130" viewBox="0 0 155 130" fill="none" xmlns="http://www.w3.org/2000/svg">
<g clip-path="url(#clip0_30_6)">
<path d="M100.9 128.546L71.8642 76.1952C71.856 76.0671 71.8164 75.9429 71.7488 75.8338C71.6812 75.7247 71.5878 75.6339 71.4767 75.5695C71.3494 75.4965 71.2039 75.4614 71.0573 75.4681C71.0526 75.4678 71.0479 75.4681 71.0431 75.4678C71.0384 75.4681 71.0336 75.4678 71.029 75.4681C70.8303 75.4588 70.6358 75.5267 70.486 75.6575C70.3363 75.7884 70.2429 75.972 70.2255 76.1701L39.4515 128.546C39.4002 128.635 39.3669 128.733 39.3535 128.835C39.34 128.937 39.3468 129.04 39.3733 129.139C39.3998 129.238 39.4455 129.331 39.508 129.412C39.5704 129.493 39.6482 129.562 39.737 129.613C39.8258 129.664 39.9238 129.698 40.0254 129.711C40.1271 129.724 40.2304 129.717 40.3294 129.691C40.4284 129.664 40.5212 129.619 40.6026 129.556C40.6839 129.494 40.7521 129.416 40.8033 129.327L71.0224 77.8951L99.5485 129.327C99.5997 129.416 99.668 129.494 99.7493 129.556C99.8306 129.619 99.9234 129.664 100.022 129.691C100.121 129.717 100.225 129.724 100.326 129.711C100.428 129.698 100.526 129.664 100.615 129.613C100.704 129.562 100.781 129.493 100.844 129.412C100.906 129.331 100.952 129.238 100.979 129.139C101.005 129.04 101.012 128.937 100.998 128.835C100.985 128.733 100.952 128.635 100.9 128.546Z" fill="#3F3D56"/>
<path d="M66.2318 119.564L69.5138 118.811L68.1712 105.794L63.3273 106.905L66.2318 119.564Z" fill="#FFB6B6"/>
<path d="M68.7692 113.276L64.0986 114.347L62.6052 111.429L62.5206 111.325C61.8581 110.512 61.4904 109.499 61.4773 108.45L57.5953 98.181L57.2779 98.0301C57.0323 97.9133 56.8145 97.7454 56.639 97.5377C56.4634 97.33 56.3342 97.0873 56.26 96.8257C56.1857 96.5641 56.1682 96.2897 56.2084 96.0207C56.2487 95.7518 56.3458 95.4945 56.4934 95.2662L56.0824 94.1791L44.4859 94.2004L44.4743 94.1971L30.2339 90.2025L31.7291 81.2891L35.7349 83.8089C37.0549 83.7232 59.6662 82.3349 61.7551 87.4024C63.6153 91.9149 66.2958 99.6243 68.2169 105.297C68.3127 105.552 68.4318 105.797 68.5726 106.03C68.8715 106.49 69.0469 107.02 69.082 107.567C69.1046 107.806 69.1501 108.041 69.2177 108.271C70.0162 110.658 68.7997 113.213 68.7873 113.239L68.7692 113.276Z" fill="#2F2E41"/>
<path d="M65.123 118.476L66.19 118.231L69.9674 115.581L72.5889 116.763L72.5892 116.763C73.851 116.473 75.1761 116.697 76.2731 117.385C77.37 118.072 78.1489 119.167 78.4385 120.429L78.4739 120.584L66.2501 123.388L65.123 118.476Z" fill="#2F2E41"/>
<path d="M16.665 118.768C16.9987 115.136 19.1262 111.5 22.5384 110.212C21.2974 113.979 21.4289 118.064 22.9097 121.744C23.4859 123.161 24.2743 124.677 23.822 126.138C23.5407 127.047 22.8037 127.76 21.9691 128.217C21.1345 128.674 20.1994 128.91 19.276 129.141L19.0979 129.298C17.5147 126.012 16.3314 122.4 16.665 118.768Z" fill="#F0F0F0"/>
<path d="M22.5749 110.279C20.638 112.595 19.4801 115.462 19.2655 118.473C19.2078 119.121 19.2525 119.773 19.398 120.407C19.5597 121.019 19.8824 121.577 20.3327 122.023C20.7442 122.447 21.2142 122.833 21.5155 123.35C21.6658 123.616 21.758 123.912 21.7861 124.217C21.8142 124.522 21.7776 124.829 21.6785 125.119C21.4506 125.847 20.9745 126.45 20.4885 127.023C19.9489 127.66 19.3783 128.313 19.1668 129.141C19.1412 129.241 18.987 129.195 19.0126 129.095C19.3806 127.655 20.7398 126.8 21.3592 125.493C21.6482 124.883 21.7552 124.183 21.4459 123.559C21.1754 123.014 20.691 122.615 20.2707 122.189C19.825 121.761 19.491 121.23 19.2978 120.643C19.1206 120.019 19.0508 119.369 19.0915 118.722C19.1599 117.263 19.4573 115.823 19.9728 114.457C20.5524 112.893 21.3952 111.441 22.4647 110.162C22.5309 110.083 22.6407 110.2 22.5749 110.279L22.5749 110.279Z" fill="white"/>
<path d="M19.2775 117.5C18.7772 117.395 18.3303 117.116 18.0167 116.712C17.7031 116.309 17.5432 115.807 17.5655 115.296C17.5666 115.275 17.5758 115.256 17.591 115.241C17.6063 115.227 17.6265 115.219 17.6473 115.22C17.6681 115.22 17.688 115.229 17.7028 115.243C17.7175 115.258 17.7259 115.278 17.7263 115.299C17.7046 115.774 17.8536 116.242 18.1464 116.617C18.4392 116.992 18.8565 117.251 19.323 117.345C19.4243 117.366 19.3783 117.52 19.2775 117.5H19.2775Z" fill="white"/>
<path d="M20.0957 121.836C20.9752 121.271 21.6097 120.397 21.8728 119.385C21.8987 119.285 22.0529 119.331 22.0269 119.431C21.7513 120.483 21.0891 121.392 20.1726 121.977C20.0852 122.033 20.0088 121.891 20.0957 121.836H20.0957Z" fill="white"/>
<path d="M20.7064 113.041C20.8915 113.121 21.0939 113.155 21.2952 113.138C21.4965 113.122 21.6906 113.055 21.8599 112.945C21.9465 112.888 22.0228 113.03 21.9367 113.086C21.7491 113.207 21.5348 113.28 21.3124 113.299C21.09 113.318 20.8663 113.282 20.6609 113.195C20.6409 113.188 20.6241 113.174 20.614 113.156C20.6039 113.137 20.6012 113.115 20.6066 113.095C20.6127 113.075 20.6266 113.057 20.6453 113.047C20.664 113.037 20.6859 113.035 20.7064 113.041H20.7064Z" fill="white"/>
<path d="M33.2622 116.335C33.2091 116.372 33.156 116.409 33.1029 116.448C32.3917 116.949 31.7223 117.507 31.1015 118.117C31.0527 118.163 31.004 118.211 30.9567 118.258C29.4765 119.743 28.2849 121.489 27.4422 123.409C27.1076 124.173 26.8316 124.961 26.6166 125.767C26.3198 126.88 26.0865 128.111 25.4578 129.034C25.3933 129.131 25.3228 129.224 25.2468 129.312L19.3035 129.503C19.2898 129.496 19.276 129.492 19.2622 129.485L19.0253 129.504C19.0335 129.461 19.0429 129.418 19.051 129.375C19.0557 129.351 19.0616 129.326 19.0663 129.301C19.0698 129.285 19.0734 129.269 19.0756 129.254C19.0768 129.248 19.078 129.243 19.0792 129.239C19.0814 129.224 19.0851 129.21 19.0874 129.196C19.1392 128.952 19.1929 128.707 19.2484 128.462C19.2483 128.461 19.2483 128.461 19.2496 128.459C19.6545 126.59 20.2797 124.776 21.1121 123.054C21.1376 123.003 21.1631 122.951 21.1913 122.899C21.5779 122.137 22.0261 121.407 22.5316 120.717C22.8096 120.34 23.1064 119.978 23.4211 119.631C24.2358 118.737 25.1861 117.976 26.2372 117.377C28.3327 116.183 30.7867 115.673 33.0869 116.287C33.1458 116.303 33.2033 116.318 33.2622 116.335Z" fill="#F0F0F0"/>
<path d="M33.2513 116.411C30.3106 117.094 27.6598 118.686 25.6755 120.961C25.2396 121.444 24.8825 121.991 24.6172 122.585C24.3775 123.171 24.2992 123.811 24.3904 124.438C24.4637 125.024 24.6066 125.616 24.5362 126.209C24.4956 126.513 24.3913 126.804 24.2302 127.065C24.0691 127.325 23.8547 127.548 23.6013 127.72C22.9808 128.164 22.2377 128.359 21.5044 128.524C20.6902 128.708 19.8416 128.885 19.1744 129.419C19.0935 129.484 18.9979 129.354 19.0786 129.29C20.2396 128.361 21.8397 128.497 23.1209 127.827C23.7187 127.514 24.2259 127.019 24.3545 126.335C24.4669 125.736 24.3201 125.127 24.2407 124.534C24.1428 123.923 24.1957 123.298 24.395 122.713C24.6292 122.108 24.9646 121.547 25.3869 121.055C26.32 119.931 27.424 118.961 28.6585 118.18C30.0625 117.281 31.6099 116.629 33.2338 116.251C33.3343 116.228 33.3511 116.388 33.2513 116.411V116.411Z" fill="white"/>
<path d="M26.2713 120.191C25.9348 119.806 25.746 119.314 25.7386 118.803C25.7313 118.292 25.9058 117.795 26.2311 117.401C26.2972 117.321 26.4239 117.42 26.3578 117.5C26.0542 117.867 25.8916 118.33 25.8994 118.806C25.9073 119.282 26.085 119.739 26.4005 120.095C26.4689 120.173 26.3394 120.268 26.2713 120.191V120.191Z" fill="white"/>
<path d="M24.3141 124.146C25.356 124.225 26.3895 123.908 27.2083 123.259C27.2894 123.195 27.385 123.324 27.304 123.388C26.4507 124.062 25.3746 124.389 24.2905 124.305C24.1872 124.297 24.2114 124.138 24.3141 124.146V124.146Z" fill="white"/>
<path d="M30.0966 117.491C30.1958 117.667 30.3372 117.816 30.508 117.924C30.6788 118.032 30.8737 118.095 31.0753 118.109C31.1787 118.116 31.1544 118.275 31.0517 118.268C30.8291 118.252 30.6139 118.181 30.4249 118.063C30.2359 117.944 30.0788 117.781 29.9675 117.587C29.9555 117.57 29.9505 117.548 29.9536 117.528C29.9567 117.507 29.9676 117.488 29.9842 117.475C30.0014 117.462 30.0228 117.457 30.0438 117.46C30.0649 117.463 30.0839 117.474 30.0966 117.491H30.0966Z" fill="white"/>
<path d="M113.904 118.768C113.571 115.136 111.443 111.5 108.031 110.212C109.272 113.979 109.14 118.064 107.66 121.744C107.083 123.161 106.295 124.677 106.747 126.138C107.029 127.047 107.766 127.76 108.6 128.217C109.435 128.674 110.37 128.91 111.293 129.141L111.471 129.298C113.055 126.012 114.238 122.4 113.904 118.768Z" fill="#F0F0F0"/>
<path d="M107.994 110.279C109.931 112.595 111.089 115.462 111.304 118.473C111.361 119.121 111.317 119.773 111.171 120.407C111.01 121.019 110.687 121.577 110.237 122.023C109.825 122.447 109.355 122.833 109.054 123.35C108.903 123.616 108.811 123.912 108.783 124.217C108.755 124.522 108.792 124.829 108.891 125.119C109.119 125.847 109.595 126.45 110.081 127.023C110.62 127.66 111.191 128.313 111.402 129.141C111.428 129.241 111.582 129.195 111.557 129.095C111.189 127.655 109.829 126.8 109.21 125.493C108.921 124.883 108.814 124.183 109.123 123.559C109.394 123.014 109.878 122.615 110.299 122.189C110.744 121.761 111.078 121.23 111.271 120.643C111.449 120.019 111.518 119.369 111.478 118.722C111.409 117.263 111.112 115.823 110.597 114.457C110.017 112.893 109.174 111.441 108.105 110.162C108.038 110.083 107.929 110.2 107.994 110.279L107.994 110.279Z" fill="white"/>
<path d="M111.292 117.5C111.792 117.395 112.239 117.116 112.553 116.712C112.866 116.309 113.026 115.807 113.004 115.296C113.003 115.275 112.993 115.256 112.978 115.241C112.963 115.227 112.943 115.219 112.922 115.22C112.901 115.22 112.881 115.229 112.866 115.243C112.852 115.258 112.843 115.278 112.843 115.299C112.865 115.774 112.716 116.242 112.423 116.617C112.13 116.992 111.713 117.251 111.246 117.345C111.145 117.366 111.191 117.52 111.292 117.5Z" fill="white"/>
<path d="M110.474 121.836C109.594 121.271 108.96 120.397 108.696 119.385C108.671 119.285 108.516 119.331 108.542 119.431C108.818 120.483 109.48 121.392 110.397 121.977C110.484 122.033 110.56 121.891 110.474 121.836H110.474Z" fill="white"/>
<path d="M109.863 113.041C109.678 113.121 109.475 113.155 109.274 113.138C109.073 113.122 108.879 113.055 108.709 112.945C108.623 112.888 108.546 113.03 108.632 113.086C108.82 113.207 109.034 113.28 109.257 113.299C109.479 113.318 109.703 113.282 109.908 113.195C109.928 113.188 109.945 113.174 109.955 113.156C109.965 113.137 109.968 113.115 109.963 113.095C109.957 113.075 109.943 113.057 109.924 113.047C109.905 113.037 109.883 113.035 109.863 113.041H109.863Z" fill="white"/>
<path d="M97.307 116.335C97.3601 116.372 97.4132 116.409 97.4663 116.448C98.1776 116.949 98.8469 117.507 99.4678 118.117C99.5165 118.163 99.5652 118.211 99.6125 118.258C101.093 119.743 102.284 121.489 103.127 123.409C103.462 124.173 103.738 124.961 103.953 125.767C104.249 126.88 104.483 128.111 105.111 129.034C105.176 129.131 105.246 129.224 105.322 129.312L111.266 129.503C111.279 129.496 111.293 129.492 111.307 129.485L111.544 129.504C111.536 129.461 111.526 129.418 111.518 129.375C111.514 129.351 111.508 129.326 111.503 129.301C111.499 129.285 111.496 129.269 111.494 129.254C111.492 129.248 111.491 129.243 111.49 129.239C111.488 129.224 111.484 129.21 111.482 129.196C111.43 128.952 111.376 128.707 111.321 128.462C111.321 128.461 111.321 128.461 111.32 128.459C110.915 126.59 110.29 124.776 109.457 123.054C109.432 123.003 109.406 122.951 109.378 122.899C108.991 122.137 108.543 121.407 108.038 120.717C107.76 120.34 107.463 119.978 107.148 119.631C106.333 118.737 105.383 117.976 104.332 117.377C102.237 116.183 99.7825 115.673 97.4823 116.287C97.4235 116.303 97.3659 116.318 97.307 116.335Z" fill="#F0F0F0"/>
<path d="M97.318 116.411C100.259 117.094 102.909 118.686 104.894 120.961C105.33 121.444 105.687 121.991 105.952 122.585C106.192 123.171 106.27 123.811 106.179 124.438C106.106 125.024 105.963 125.616 106.033 126.209C106.074 126.513 106.178 126.804 106.339 127.065C106.5 127.325 106.715 127.548 106.968 127.72C107.588 128.164 108.332 128.359 109.065 128.524C109.879 128.708 110.728 128.885 111.395 129.419C111.476 129.484 111.571 129.354 111.491 129.29C110.33 128.361 108.73 128.497 107.448 127.827C106.851 127.514 106.343 127.019 106.215 126.335C106.102 125.736 106.249 125.127 106.329 124.534C106.426 123.923 106.374 123.298 106.174 122.713C105.94 122.108 105.605 121.547 105.182 121.055C104.249 119.931 103.145 118.961 101.911 118.18C100.507 117.281 98.9594 116.629 97.3355 116.251C97.2349 116.228 97.2181 116.388 97.318 116.411V116.411Z" fill="white"/>
<path d="M104.298 120.191C104.634 119.806 104.823 119.314 104.831 118.803C104.838 118.292 104.663 117.795 104.338 117.401C104.272 117.321 104.145 117.42 104.212 117.5C104.515 117.867 104.678 118.33 104.67 118.806C104.662 119.282 104.484 119.739 104.169 120.095C104.1 120.173 104.23 120.268 104.298 120.191V120.191Z" fill="white"/>
<path d="M106.255 124.146C105.213 124.225 104.18 123.908 103.361 123.259C103.28 123.195 103.184 123.324 103.265 123.388C104.119 124.062 105.195 124.389 106.279 124.305C106.382 124.297 106.358 124.138 106.255 124.146V124.146Z" fill="white"/>
<path d="M100.473 117.491C100.373 117.667 100.232 117.816 100.061 117.924C99.8905 118.032 99.6955 118.095 99.494 118.109C99.3906 118.116 99.4149 118.275 99.5176 118.268C99.7402 118.252 99.9554 118.181 100.144 118.063C100.333 117.944 100.49 117.781 100.602 117.587C100.614 117.57 100.619 117.548 100.616 117.528C100.613 117.507 100.602 117.488 100.585 117.475C100.568 117.462 100.546 117.457 100.525 117.46C100.504 117.463 100.485 117.474 100.473 117.491H100.473Z" fill="white"/>
<path d="M155 129.794C155 129.848 154.978 129.901 154.939 129.94C154.901 129.978 154.848 130 154.794 130H0.206455C0.151716 130 0.0992184 129.978 0.0605121 129.94C0.0218057 129.901 6.10352e-05 129.849 6.10352e-05 129.794C6.10352e-05 129.739 0.0218057 129.687 0.0605121 129.648C0.0992184 129.609 0.151716 129.587 0.206455 129.587H154.794C154.848 129.588 154.901 129.609 154.939 129.648C154.978 129.687 155 129.739 155 129.794Z" fill="#3F3D56"/>
<path d="M99.574 49.9511C100.005 49.9511 100.354 49.6017 100.354 49.1706C100.354 48.7396 100.005 48.3901 99.574 48.3901C99.143 48.3901 98.7935 48.7396 98.7935 49.1706C98.7935 49.6017 99.143 49.9511 99.574 49.9511Z" fill="#3F3D56"/>
<path d="M89.8008 55.1825L100.323 48.5719C100.418 48.512 100.524 48.4721 100.635 48.4546C100.746 48.437 100.86 48.4421 100.969 48.4696C101.078 48.4971 101.18 48.5464 101.27 48.6145C101.359 48.6827 101.434 48.7682 101.489 48.866C101.545 48.9638 101.58 49.0718 101.592 49.1836C101.605 49.2953 101.594 49.4084 101.562 49.516C101.53 49.6236 101.476 49.7236 101.404 49.8098C101.331 49.8961 101.243 49.9668 101.142 50.0177L90.065 55.6485C90.0035 55.6798 89.9323 55.6861 89.8662 55.6662C89.8001 55.6463 89.7443 55.6017 89.7103 55.5417C89.6763 55.4817 89.6667 55.4108 89.6836 55.3439C89.7004 55.277 89.7424 55.2192 89.8008 55.1825V55.1825Z" fill="#E4E4E4"/>
<path d="M68.6914 69.4168C68.6085 69.2936 68.5653 69.148 68.5674 68.9995C68.5695 68.851 68.617 68.7068 68.7034 68.586C68.8815 68.3476 69.1186 68.1596 69.3913 68.0405C69.9543 67.754 70.5607 67.5623 71.1862 67.4733C71.6614 67.4058 72.1802 67.3843 72.5489 67.0768C72.9151 66.7714 73.1193 66.2003 73.5939 66.1526C74.0526 66.1066 74.4053 66.6087 74.8653 66.6399C75.4324 66.6783 75.8036 66.0146 76.3554 65.8785C76.7248 65.7874 77.1045 65.9482 77.451 66.1054L79.53 67.0486L80.5957 67.5321C80.9679 67.7009 81.3877 67.9283 81.4579 68.331C81.5545 68.8843 80.9392 69.2747 80.4131 69.4711C76.6563 70.8575 72.5281 70.8581 68.771 69.4725" fill="#F9B647"/>
<path d="M71.8236 79.6101C86.9103 79.6101 99.1404 77.8629 99.1404 75.7076C99.1404 73.5524 86.9103 71.8052 71.8236 71.8052C56.7369 71.8052 44.5068 73.5524 44.5068 75.7076C44.5068 77.8629 56.7369 79.6101 71.8236 79.6101Z" fill="#3F3D56"/>
<path d="M127.238 99.9028H108.506C107.644 99.9028 106.945 100.602 106.945 101.464C106.945 102.326 107.644 103.025 108.506 103.025H127.238C128.1 103.025 128.799 102.326 128.799 101.464C128.799 100.602 128.1 99.9028 127.238 99.9028Z" fill="#3F3D56"/>
<path d="M136.316 72.072L130.129 101.462L131.74 108.984L134.782 123.18V129.561C134.783 129.57 134.782 129.579 134.781 129.587C134.78 129.728 134.754 129.868 134.704 130H132.259C132.209 129.868 132.184 129.728 132.182 129.587C132.181 129.579 132.18 129.57 132.181 129.561V123.454L129.42 110.569L128.861 107.968L127.781 102.926L127.468 101.465V101.464L127.777 99.9997L128.015 98.8705L133.769 71.5378C133.804 71.3705 133.872 71.2117 133.968 71.0705C134.065 70.9293 134.188 70.8085 134.331 70.715C134.474 70.6215 134.634 70.557 134.802 70.5254C134.97 70.4938 135.143 70.4956 135.31 70.5306C135.477 70.5657 135.636 70.6335 135.777 70.7299C135.918 70.8264 136.039 70.9498 136.132 71.0929C136.226 71.2361 136.29 71.3962 136.321 71.5642C136.353 71.7322 136.351 71.9048 136.316 72.072L136.316 72.072Z" fill="#3F3D56"/>
<path d="M109.807 101.463V129.561C109.807 129.57 109.807 129.578 109.805 129.587C109.804 129.728 109.778 129.868 109.729 130H107.283C107.234 129.868 107.208 129.728 107.207 129.587C107.206 129.578 107.205 129.57 107.205 129.561V101.463C107.205 101.118 107.342 100.788 107.586 100.544C107.83 100.3 108.161 100.163 108.506 100.163C108.851 100.163 109.182 100.3 109.426 100.544C109.67 100.788 109.807 101.118 109.807 101.463Z" fill="#3F3D56"/>
<path d="M111.628 96.7808H124.116C125.358 96.7808 126.549 97.2741 127.427 98.1524C128.305 99.0306 128.799 100.222 128.799 101.464H106.945C106.945 100.222 107.439 99.0306 108.317 98.1524C109.195 97.2741 110.386 96.7808 111.628 96.7808Z" fill="#3F3D56"/>
<path d="M130.36 110.569H108.506C108.161 110.569 107.83 110.432 107.586 110.188C107.342 109.944 107.205 109.614 107.205 109.269C107.205 108.924 107.342 108.593 107.586 108.349C107.83 108.105 108.161 107.968 108.506 107.968H130.36C130.705 107.968 131.035 108.105 131.279 108.349C131.523 108.593 131.66 108.924 131.66 109.269C131.66 109.614 131.523 109.944 131.279 110.188C131.035 110.432 130.705 110.569 130.36 110.569Z" fill="#3F3D56"/>
<path d="M28.7079 103.072H50.7506C51.6127 103.072 52.3115 102.373 52.3115 101.511V101.038C52.3115 100.176 51.6127 99.4768 50.7506 99.4768H28.7079C27.8458 99.4768 27.1469 100.176 27.1469 101.038V101.511C27.1469 102.373 27.8458 103.072 28.7079 103.072Z" fill="#3F3D56"/>
<path d="M28.4809 101.295L28.0819 102.94L26.6181 108.962L25.9869 111.563L23.0556 123.631V128.867C23.0564 129.124 22.9803 129.375 22.8372 129.587C22.7246 129.759 22.5716 129.901 22.3914 130H21.1183C20.9382 129.901 20.7852 129.759 20.6726 129.587C20.5294 129.375 20.4533 129.124 20.454 128.867V123.319L23.7113 109.912L25.8134 101.254L18.685 67.3892C18.6497 67.222 18.6477 67.0496 18.6792 66.8817C18.7106 66.7138 18.7748 66.5537 18.8681 66.4106C18.9614 66.2675 19.082 66.1442 19.223 66.0478C19.364 65.9513 19.5226 65.8836 19.6898 65.8485C19.857 65.8134 20.0294 65.8116 20.1973 65.8432C20.3652 65.8748 20.5252 65.9392 20.6682 66.0327C20.8112 66.1261 20.9343 66.2469 21.0306 66.388C21.1269 66.5291 21.1944 66.6878 21.2294 66.855L27.8184 98.1491L28.1219 99.5922L28.4757 101.275L28.4809 101.295Z" fill="#3F3D56"/>
<path d="M51.8155 101.274V128.867C51.8163 129.124 51.7402 129.374 51.597 129.587C51.4844 129.759 51.3314 129.901 51.1512 130H49.8764C49.6972 129.9 49.5448 129.759 49.4324 129.587C49.2893 129.374 49.2132 129.124 49.2139 128.867V101.274C49.2139 100.929 49.351 100.599 49.5949 100.355C49.8389 100.111 50.1697 99.9736 50.5147 99.9736C50.8597 99.9736 51.1906 100.111 51.4345 100.355C51.6785 100.599 51.8155 100.929 51.8155 101.274Z" fill="#3F3D56"/>
<path d="M52.3116 101.274H27.147V100.565C27.147 99.9499 27.2681 99.341 27.5034 98.7728C27.7388 98.2046 28.0837 97.6884 28.5186 97.2535C28.9534 96.8187 29.4696 96.4737 30.0378 96.2384C30.606 96.0031 31.2149 95.8819 31.8299 95.8819H47.6287C48.8707 95.8819 50.0618 96.3753 50.94 97.2535C51.8182 98.1318 52.3116 99.3229 52.3116 100.565V101.274H52.3116Z" fill="#3F3D56"/>
<path d="M50.5141 111.563H25.3495C25.0045 111.563 24.6737 111.426 24.4297 111.182C24.1858 110.938 24.0487 110.607 24.0487 110.262C24.0487 109.917 24.1858 109.586 24.4297 109.342C24.6737 109.098 25.0045 108.961 25.3495 108.961H50.5141C50.8591 108.961 51.19 109.098 51.4339 109.342C51.6779 109.586 51.8149 109.917 51.8149 110.262C51.8149 110.607 51.6779 110.938 51.4339 111.182C51.19 111.426 50.8591 111.563 50.5141 111.563Z" fill="#3F3D56"/>
<path d="M82.8546 122.91L80.1207 121.602L83.8762 110.174L87.9114 112.104L82.8546 122.91Z" fill="#9E616A"/>
<path d="M101.383 121.875L98.4432 122.6L94.1837 111.353L98.5228 110.282L101.383 121.875Z" fill="#9E616A"/>
<path d="M90.1152 73.2389C90.5052 73.8722 91.1272 74.328 91.8486 74.509C92.57 74.69 93.3335 74.5818 93.9763 74.2076C94.1055 74.1294 94.2281 74.0405 94.3427 73.9421L102.986 78.9025L102.611 73.8105L94.4603 69.8807C94.0168 69.4352 93.438 69.1494 92.8146 69.0682C92.1913 68.987 91.5586 69.115 91.0158 69.432C90.7033 69.6197 90.4315 69.868 90.2164 70.1623C90.0013 70.4566 89.8472 70.7909 89.7633 71.1457C89.6794 71.5004 89.6673 71.8684 89.7277 72.2279C89.7881 72.5873 89.9199 72.9311 90.1152 73.2389Z" fill="#9E616A"/>
<path d="M99.2701 77.0345L100.798 77.9656L107.66 82.1501C108.111 82.4321 108.613 82.6225 109.137 82.7105C109.661 82.7984 110.198 82.7821 110.716 82.6625C111.234 82.5429 111.723 82.3224 112.156 82.0136C112.589 81.7047 112.957 81.3136 113.238 80.8626C113.746 80.0255 113.926 79.0298 113.743 78.0679L110.693 62.8306C110.58 62.2324 110.34 61.6656 109.988 61.169C109.636 60.6723 109.181 60.2575 108.654 59.9529C108.127 59.6482 107.541 59.461 106.935 59.4039C106.329 59.3468 105.717 59.4213 105.143 59.6221C104.177 59.9615 103.377 60.6561 102.905 61.5645C102.433 62.473 102.325 63.5271 102.603 64.5124L105.792 75.326L100.904 73.0469L99.2701 77.0345Z" fill="#E6E6E6"/>
<path d="M95.6575 118.723L90.9532 109.288L90.9538 109.266L91.4182 91.9608C91.424 91.8069 91.4365 91.6522 91.4553 91.5001C91.5373 90.8062 91.7567 90.1356 92.1005 89.5274C92.4444 88.9192 92.9059 88.3855 93.4582 87.9574C93.9871 87.5436 94.5931 87.2392 95.2409 87.0621C95.8887 86.8849 96.5653 86.8385 97.2312 86.9256L110.683 88.6665L111.15 86.7588L111.237 86.7272L124.126 82.0034L124.2 82.1244C125.888 84.8711 127.068 90.3576 127.39 91.9737L127.394 91.997C127.401 92.031 127.405 92.0517 127.406 92.0577C128.07 94.8156 125.328 99.3841 122.597 100.071C116.844 101.537 111.699 100.393 105.741 99.0687C103.605 98.5935 101.397 98.1024 98.965 97.6779L99.0373 99.1092C99.0965 100.211 99.3254 101.297 99.7159 102.329C100.149 103.599 100.492 104.602 99.7677 106.693L99.4174 107.705C99.5991 108.207 99.6616 108.745 99.6001 109.276C99.5386 109.806 99.3546 110.315 99.0627 110.763L98.9923 110.87L102.095 118.721L95.6575 118.723Z" fill="#2F2E41"/>
<path d="M87.9282 114.55L82.3182 114.029L84.3057 107.673C84.7159 103.523 85.7493 99.4578 87.3711 95.6156L90.0821 89.191C90.0883 89.048 90.1004 88.9041 90.1178 88.7631C90.1999 88.0693 90.4192 87.3987 90.7631 86.7904C91.1069 86.1822 91.5685 85.6485 92.1207 85.2205C92.6497 84.8069 93.2557 84.5026 93.9035 84.3255C94.5512 84.1483 95.2277 84.1019 95.8936 84.1888L109.326 85.9271L109.911 81.0168L122.803 79.2915L122.862 79.3875C125.116 83.0541 126.547 85.9246 127.365 88.421C127.406 88.5483 127.442 88.6782 127.473 88.8076C128.142 91.5841 126.474 94.3991 123.756 95.0825C116.83 96.8484 108.501 96.7994 97.5499 94.9275L92.25 107.54C91.7435 108.745 91.1163 109.895 90.3781 110.974L87.9282 114.55Z" fill="#2F2E41"/>
<path d="M107.496 50.8773C111.085 50.8773 113.995 47.903 113.995 44.2341C113.995 40.5651 111.085 37.5908 107.496 37.5908C103.907 37.5908 100.998 40.5651 100.998 44.2341C100.998 47.903 103.907 50.8773 107.496 50.8773Z" fill="#9E616A"/>
<path d="M109.373 86.1587L108.44 82.8184L108.211 81.1707L106.871 81.2154L104.241 75.1443L103.219 73.5434C103.011 73.3241 102.822 73.1132 102.653 72.9107C101.588 71.7075 100.735 70.3331 100.128 68.8456C99.7034 67.7768 99.4539 66.6464 99.3894 65.498C99.1988 62.1059 100.629 58.5171 103.761 54.5271C103.71 54.3858 103.675 54.239 103.659 54.0896C103.603 53.6049 103.741 53.1177 104.042 52.7339C104.343 52.3502 104.784 52.101 105.268 52.0405L108.289 51.7013C108.524 51.6747 108.762 51.695 108.989 51.7612C109.216 51.8274 109.428 51.9381 109.612 52.0868C109.804 52.2406 109.963 52.4311 110.081 52.6471C110.198 52.8632 110.271 53.1005 110.296 53.3452C110.337 53.7237 110.262 54.1056 110.083 54.4412C111.623 54.6367 113.074 55.2723 114.261 56.2718C115.449 57.2713 116.323 58.5922 116.779 60.0761C118.587 63.451 120.028 67.0099 121.077 70.6918C121.284 71.413 121.192 72.1561 121.103 72.8747C121.021 73.5385 120.936 74.2249 121.079 74.909C121.224 75.6048 121.574 76.3028 121.945 77.0418C122.369 77.8881 122.808 78.7633 122.927 79.6554L122.935 79.7181L109.373 86.1587Z" fill="#E4E4E4"/>
<path opacity="0.2" d="M100.209 68.8132C100.813 70.2921 101.661 71.6586 102.719 72.8553C102.901 73.0717 103.092 73.2843 103.292 73.4973L104.32 75.1102C108.11 72.2699 111.18 61.0861 111.18 61.0861L106.904 60.2544L100.209 68.8132Z" fill="black"/>
<path d="M97.6203 51.498C97.9947 52.1411 98.1034 52.9049 97.9232 53.6269C97.743 54.3489 97.2883 54.9721 96.6556 55.3639C96.5258 55.4415 96.3897 55.5083 96.2489 55.5635L96.5515 65.5251L92.2377 62.8095L92.6116 53.7661C92.4281 53.1643 92.4489 52.5187 92.6709 51.9299C92.8929 51.3412 93.3035 50.8426 93.8386 50.5118C94.1504 50.3232 94.4967 50.199 94.8572 50.1466C95.2178 50.0941 95.5851 50.1145 95.9377 50.2064C96.2902 50.2983 96.6207 50.46 96.9097 50.6818C97.1987 50.9037 97.4403 51.1812 97.6203 51.498Z" fill="#9E616A"/>
<path d="M96.9306 61.765L92.1867 62.4396L92.3907 72.2637C92.4025 72.9645 92.5933 73.6507 92.9451 74.2569C93.2968 74.8632 93.7977 75.3695 94.4002 75.7277C95.1362 76.1608 95.9931 76.3428 96.8417 76.2465C97.6902 76.1502 98.4844 75.7806 99.1047 75.1936L110.305 64.4207C111.093 63.6731 111.564 62.652 111.622 61.5674C111.681 60.4828 111.321 59.4171 110.618 58.5895C110.269 58.1774 109.842 57.8395 109.361 57.5957C108.88 57.352 108.354 57.2074 107.816 57.1705C107.278 57.1337 106.738 57.2053 106.228 57.3812C105.718 57.5571 105.249 57.8336 104.848 58.1944C104.737 58.2933 104.632 58.3982 104.532 58.5085L97.1368 67.0162L96.9306 61.765Z" fill="#E6E6E6"/>
<path d="M57.2533 125.844L60.6204 125.844L62.2223 112.856L57.2527 112.856L57.2533 125.844Z" fill="#FFB6B6"/>
<path d="M38.1674 51.0701C41.879 51.0701 44.8879 48.0612 44.8879 44.3495C44.8879 40.6378 41.879 37.6289 38.1674 37.6289C34.4557 37.6289 31.4468 40.6378 31.4468 44.3495C31.4468 48.0612 34.4557 51.0701 38.1674 51.0701Z" fill="#FFB6B6"/>
<path d="M61.7194 121.843H56.9512L55.7355 120.214L55.4065 118.678L55.1233 118.404C54.7391 118.036 54.4907 117.548 54.4184 117.02C54.346 116.493 54.454 115.956 54.7247 115.497L51.269 99.374C50.3639 99.2944 40.1568 98.3818 33.0615 97.126C31.2457 96.8047 29.828 95.922 28.8477 94.5025C26.439 91.0145 27.4708 85.3707 27.4815 85.3141L27.4934 85.2512L27.5571 85.244L44.1301 83.3838L44.1524 83.3944C44.7024 83.6549 57.6463 89.7999 59.7615 91.9151C60.7167 92.8703 62.8477 98.5454 63.3248 104.579C63.4102 105.66 63.1027 106.76 62.8052 107.825C62.527 108.821 62.2392 109.851 62.2961 110.824C62.3838 112.327 62.4669 113.903 62.5432 115.508C62.5554 115.764 62.7482 116.029 62.9346 116.285C63.1293 116.553 63.3132 116.805 63.3249 117.07C63.4382 119.634 61.7624 121.789 61.7454 121.81L61.7194 121.843Z" fill="#2F2E41"/>
<path d="M62.8051 62.2498C62.4441 62.1511 62.0658 62.1328 61.6969 62.1961C61.3281 62.2594 60.9776 62.4028 60.6701 62.6162C60.3626 62.8297 60.1057 63.1079 59.9174 63.4314C59.7291 63.7549 59.6141 64.1157 59.5803 64.4884L53.9963 66.2337L54.2293 69.8858L62.0803 67.3104C62.7103 67.3256 63.3239 67.1092 63.805 66.7022C64.286 66.2951 64.6011 65.7258 64.6904 65.102C64.7798 64.4783 64.6372 63.8434 64.2897 63.3177C63.9423 62.792 63.414 62.412 62.8051 62.2498V62.2498Z" fill="#FFB6B6"/>
<path d="M59.1618 68.2932L54.9885 69.8728L54.8817 70.0798C54.6259 70.5762 54.1833 70.9506 53.6514 71.1206C53.1196 71.2907 52.5419 71.2425 52.0455 70.9866L42.6651 74.537C42.6651 74.537 38.476 70.3449 35.4935 66.6036L36.51 60.3514C36.7454 58.9008 37.2458 57.5058 37.9862 56.2363C44.1027 57.5776 47.6138 66.1281 47.6138 66.1281L58.6374 64.0247L59.1618 68.2932Z" fill="#F9B647"/>
<path d="M37.2124 50.7108C35.5299 51.1652 33.675 50.5611 32.362 49.4151C31.049 48.2691 30.2276 46.6453 29.7544 44.968C29.4078 43.7396 29.2434 42.376 29.7904 41.2227C30.3374 40.0695 31.8094 39.2914 32.9451 39.874C32.2445 39.0577 32.5945 37.7077 33.4127 37.0094C34.2309 36.3111 35.3545 36.1109 36.4246 36.0015C37.9776 35.8427 39.5818 35.8249 41.0596 36.328C42.5374 36.8312 43.8801 37.9311 44.3426 39.4222C44.815 39.6421 45.347 39.6992 45.8553 39.5844C46.3636 39.4697 46.8194 39.1896 47.1515 38.788C47.2371 39.2492 47.1683 39.7258 46.9558 40.144C46.7433 40.5621 46.3989 40.8986 45.9759 41.1014L48.2402 40.3673C48.6296 41.1915 47.9473 42.2117 47.0747 42.4756C46.2022 42.7396 45.2603 42.4511 44.4323 42.0697C43.6042 41.6884 42.8018 41.2063 41.9024 41.0575C41.003 40.9088 39.9465 41.1978 39.5305 42.009C39.3126 42.4338 39.3012 42.9314 39.1747 43.3918C39.0482 43.8522 38.7278 44.3296 38.2518 44.3673C37.951 44.3911 37.6566 44.2309 37.3567 44.2636C36.985 44.3042 36.7004 44.641 36.6014 45.0017C36.5267 45.3692 36.5258 45.7479 36.5987 46.1158L37.1739 50.5122" fill="#2F2E41"/>
<path d="M28.8863 95.3057C28.885 95.3057 28.8838 95.3055 28.8825 95.3052L28.8294 95.2962L28.814 95.2445C28.6208 94.5946 28.3749 93.9294 28.1371 93.286C27.787 92.395 27.4913 91.4836 27.2517 90.5567C27.0632 89.6705 26.9325 88.773 26.8604 87.8699C26.7941 87.2143 26.7255 86.5363 26.6089 85.8688C26.5571 85.5725 26.7533 85.2918 26.9431 85.0204C27.1191 84.7688 27.2854 84.5311 27.2505 84.3062C27.2148 84.0763 26.9598 83.8238 26.7132 83.5795C26.4429 83.3118 26.1634 83.035 26.1238 82.7436C25.5851 78.7683 25.3344 74.7593 25.3735 70.7478C25.4292 65.1975 25.6801 61.4144 26.119 59.5034C27.2994 54.3648 32.7529 53.427 33.6065 53.3113C33.6974 53.0691 33.8372 52.8483 34.0172 52.6624C34.1971 52.4766 34.4134 52.3299 34.6525 52.2312C34.8917 52.1326 35.1485 52.0843 35.4072 52.0892C35.6658 52.0941 35.9206 52.1523 36.1558 52.2599L40.0306 54.0337C40.8166 54.3948 41.5199 54.9137 42.0969 55.5581C42.6739 56.2025 43.1122 56.9586 43.3846 57.7796L43.9602 59.5344L44.2485 71.3145L42.6507 79.61L45.7726 84.2929C29.1339 93.4281 28.9399 95.3057 28.8863 95.3057Z" fill="#F9B647"/>
<path d="M55.4413 124.535L56.5361 124.535L60.8104 122.797L63.1012 124.535H63.1015C64.3961 124.535 65.6377 125.049 66.5531 125.965C67.4686 126.88 67.9829 128.122 67.983 129.416V129.575L55.4416 129.575L55.4413 124.535Z" fill="#2F2E41"/>
<path d="M64.2033 70.656C63.8805 70.4665 63.5201 70.3501 63.1475 70.315C62.7749 70.2799 62.3991 70.3269 62.0466 70.4527C61.6941 70.5785 61.3735 70.7801 61.1073 71.0433C60.8411 71.3064 60.6359 71.6247 60.5061 71.9757L54.6602 72.2037L53.8725 74.9268L62.1833 75.3522C62.7874 75.5312 63.4363 75.4824 64.0069 75.215C64.5775 74.9476 65.0302 74.4802 65.2791 73.9013C65.5281 73.3225 65.5561 72.6724 65.3578 72.0742C65.1596 71.4761 64.7487 70.9715 64.2033 70.656Z" fill="#FFB6B6"/>
<path d="M59.4013 75.646L53.3964 75.5712L52.6362 75.5609L40.4189 75.4069C40.4189 75.4069 37.1012 72.2418 34.2123 68.983L34.6173 66.0542C35.0122 63.1799 36.438 60.547 38.6293 58.6455C42.7669 61.4102 45.1664 66.8827 45.1664 66.8827L49.1896 68.683C52.021 68.8097 54.78 69.6177 57.2323 71.0385L58.5554 71.805L59.4013 75.646Z" fill="#F9B647"/>
<path d="M103.528 127.414L101.53 127.908L100.708 126.109L100.26 128.221L94.9608 129.529C94.7068 129.592 94.4394 129.571 94.1977 129.471C93.9559 129.371 93.7525 129.197 93.617 128.973C93.4816 128.749 93.4212 128.488 93.4448 128.227C93.4684 127.966 93.5746 127.72 93.748 127.524L97.2586 123.557L96.788 121.65L101.305 120.817L103.528 127.414Z" fill="#2F2E41"/>
<path d="M82.3612 128.031L80.4559 127.254L80.8501 125.316L79.2447 126.759L74.1913 124.697C73.949 124.598 73.7447 124.424 73.6082 124.201C73.4717 123.978 73.4101 123.717 73.4324 123.456C73.4547 123.195 73.5597 122.949 73.7322 122.752C73.9047 122.555 74.1355 122.419 74.391 122.362L79.5642 121.222L80.3065 119.404L84.4478 121.39L82.3612 128.031Z" fill="#2F2E41"/>
<path d="M75.726 75.0135H74.165C72.4867 75.0116 70.8775 74.3441 69.6908 73.1572C68.504 71.9704 67.8364 70.3613 67.8345 68.6829V68.5962H82.0566V68.6829C82.0547 70.3613 81.3871 71.9704 80.2003 73.1572C79.0135 74.3441 77.4044 75.0116 75.726 75.0135Z" fill="#E4E4E4"/>
<path d="M74.165 66.3415C74.165 66.7726 73.3845 67.122 73.3845 67.122C73.3845 67.122 72.6041 66.7726 72.6041 66.3415C72.6041 65.9105 73.3845 65.561 73.3845 65.561C73.3845 65.561 74.165 65.9105 74.165 66.3415Z" fill="#3F3D56"/>
<path d="M78.8479 66.3415C78.8479 66.7726 78.0674 67.122 78.0674 67.122C78.0674 67.122 77.2869 66.7726 77.2869 66.3415C77.2869 65.9105 78.0674 65.561 78.0674 65.561C78.0674 65.561 78.8479 65.9105 78.8479 66.3415Z" fill="#3F3D56"/>
<path d="M75.726 67.9026C75.726 68.3336 74.9455 68.683 74.9455 68.683C74.9455 68.683 74.165 68.3336 74.165 67.9026C74.165 67.4715 74.9455 67.1221 74.9455 67.1221C74.9455 67.1221 75.726 67.4715 75.726 67.9026Z" fill="#3F3D56"/>
<path d="M70.2626 64.6938C70.6936 64.6938 71.0431 64.3444 71.0431 63.9133C71.0431 63.4822 70.6936 63.1328 70.2626 63.1328C69.8315 63.1328 69.4821 63.4822 69.4821 63.9133C69.4821 64.3444 69.8315 64.6938 70.2626 64.6938Z" fill="#3F3D56"/>
<path d="M58.9117 62.2359L71.2212 63.936C71.3326 63.9514 71.4396 63.9891 71.536 64.047C71.6323 64.105 71.716 64.1818 71.7818 64.2729C71.8476 64.3641 71.8943 64.4676 71.919 64.5773C71.9437 64.6869 71.9459 64.8005 71.9255 64.911C71.9051 65.0216 71.8625 65.1268 71.8002 65.2205C71.738 65.3141 71.6574 65.3941 71.5634 65.4557C71.4694 65.5174 71.3639 65.5593 71.2532 65.579C71.1425 65.5987 71.029 65.5957 70.9195 65.5703L58.8145 62.7627C58.7472 62.7471 58.6886 62.7062 58.6508 62.6485C58.6129 62.5908 58.5988 62.5207 58.6113 62.4528C58.6239 62.385 58.6621 62.3246 58.718 62.2842C58.774 62.2438 58.8433 62.2265 58.9117 62.2359Z" fill="#E4E4E4"/>
<path d="M73.8699 23.4516V0H72.309V23.4516C70.1762 23.6462 68.1932 24.631 66.7492 26.2126C65.3051 27.7942 64.5044 29.8584 64.5042 32V34.3415H69.9675C69.9675 35.1695 70.2964 35.9636 70.8819 36.5491C71.4674 37.1346 72.2615 37.4635 73.0894 37.4635C73.9174 37.4635 74.7115 37.1346 75.297 36.5491C75.8824 35.9636 76.2114 35.1695 76.2114 34.3415H81.6747V32C81.6745 29.8584 80.8737 27.7942 79.4297 26.2126C77.9857 24.631 76.0027 23.6462 73.8699 23.4516Z" fill="#F0F0F0"/>
<path d="M93.9673 17.5887V0H92.7966V17.5887C91.197 17.7347 89.7098 18.4732 88.6267 19.6594C87.5437 20.8456 86.9432 22.3938 86.943 24V25.7561H91.0405C91.0405 26.3771 91.2872 26.9727 91.7263 27.4118C92.1654 27.8509 92.761 28.0976 93.382 28.0976C94.0029 28.0976 94.5985 27.8509 95.0376 27.4118C95.4767 26.9727 95.7234 26.3771 95.7234 25.7561H99.8209V24C99.8207 22.3938 99.2202 20.8456 98.1372 19.6594C97.0542 18.4732 95.5669 17.7347 93.9673 17.5887Z" fill="#F0F0F0"/>
<path d="M54.4229 17.5887V0H53.2522V17.5887C51.6526 17.7347 50.1654 18.4732 49.0824 19.6594C47.9994 20.8456 47.3988 22.3938 47.3986 24V25.7561H51.4961C51.4961 26.3771 51.7428 26.9727 52.1819 27.4118C52.621 27.8509 53.2166 28.0976 53.8376 28.0976C54.4586 28.0976 55.0541 27.8509 55.4932 27.4118C55.9323 26.9727 56.179 26.3771 56.179 25.7561H60.2766V24C60.2764 22.3938 59.6758 20.8456 58.5928 19.6594C57.5098 18.4732 56.0225 17.7347 54.4229 17.5887Z" fill="#F0F0F0"/>
<path d="M124.885 41.3531C123.781 40.065 123.256 38.3559 122.372 36.8932C121.489 35.4305 119.953 34.1213 118.329 34.4617C117.21 34.6963 116.346 35.6838 115.908 36.7848C115.47 37.8857 115.388 39.0998 115.311 40.2892C115.338 37.8449 113.728 35.4754 111.51 34.6954C109.292 33.9155 106.637 34.7855 105.243 36.7492C104.635 36.1854 103.841 35.8643 103.011 35.8469C102.182 35.8295 101.376 36.1169 100.744 36.6547C99.4974 37.769 99.2215 39.89 100.138 41.3113C101.055 42.7327 103.041 43.2622 104.498 42.4739L105.013 42.9478C104.723 43.962 105.286 45.16 106.231 45.5418C106.997 45.8514 108.08 45.7998 108.366 46.6043C108.567 47.1663 108.192 47.7663 107.794 48.1982C107.395 48.6301 106.922 49.0761 106.874 49.6738C106.802 50.5756 107.734 51.2073 108.581 51.3975C110.624 51.8563 112.89 50.9104 114.067 49.1077C114.09 49.0729 114.115 49.0381 114.141 49.0033C114.802 48.1586 115.283 47.188 115.556 46.151C115.829 45.114 115.887 44.0322 115.728 42.9718C115.662 42.5551 115.729 42.2452 116.016 42.1466C117.257 41.7201 120.736 42.6152 121.789 43.4242C122.842 44.2332 123.685 45.3038 124.699 46.165C125.713 47.0262 127.005 47.6906 128.293 47.456C129.324 47.2682 130.201 46.5195 130.791 45.6165C131.381 44.7134 131.721 43.6608 132.025 42.6147C129.745 43.932 126.624 43.3806 124.885 41.3531Z" fill="#2F2E41"/>
</g>
<defs>
<clipPath id="clip0_30_6">
<rect width="155" height="130" fill="white"/>
</clipPath>
</defs>
</svg>
